<svg width="14" height="14" viewBox="0 0 16 16" fill="none" xmlns="http://www.w3.org/2000/svg">
<circle cx="8" cy="8" r="7.33" stroke="#726DA6" stroke-width="1.34"/>
<path d="M8.42465 10.5761H7.08625C7.09104 10.1155 7.13182 9.73896 7.20857 9.44633C7.29012 9.14891 7.42205 8.87787 7.60434 8.63321C7.78663 8.38856 8.02889 8.11032 8.33111 7.79851C8.55177 7.57304 8.75326 7.36197 8.93555 7.16529C9.12264 6.96381 9.27375 6.74793 9.38888 6.51767C9.50401 6.28261 9.56157 6.00198 9.56157 5.67577C9.56157 5.34477 9.50161 5.05934 9.38168 4.81948C9.26655 4.57962 9.09385 4.39493 8.86359 4.26541C8.63812 4.13589 8.35749 4.07113 8.02169 4.07113C7.74346 4.07113 7.47961 4.1215 7.23016 4.22224C6.98071 4.32298 6.77923 4.47888 6.62572 4.68996C6.47221 4.89623 6.39306 5.16727 6.38826 5.50307H5.05705C5.06665 4.961 5.20097 4.49567 5.46001 4.1071C5.72386 3.71853 6.07884 3.42111 6.52498 3.21483C6.97111 3.00856 7.47002 2.90542 8.02169 2.90542C8.63093 2.90542 9.14902 3.01575 9.57597 3.23642C10.0077 3.45709 10.3363 3.7737 10.5618 4.18626C10.7872 4.59401 10.9 5.07853 10.9 5.63979C10.9 6.07154 10.8112 6.4697 10.6337 6.83428C10.461 7.19407 10.238 7.53227 9.96454 7.84888C9.6911 8.16549 9.40087 8.46771 9.09385 8.75554C8.83001 9.0002 8.65251 9.27603 8.56137 9.58305C8.47022 9.89007 8.42465 10.2211 8.42465 10.5761ZM7.02868 12.8571C7.02868 12.6412 7.09584 12.4589 7.23016 12.3102C7.36448 12.1615 7.55876 12.0872 7.81301 12.0872C8.07206 12.0872 8.26874 12.1615 8.40306 12.3102C8.53738 12.4589 8.60454 12.6412 8.60454 12.8571C8.60454 13.0634 8.53738 13.2409 8.40306 13.3896C8.26874 13.5383 8.07206 13.6127 7.81301 13.6127C7.55876 13.6127 7.36448 13.5383 7.23016 13.3896C7.09584 13.2409 7.02868 13.0634 7.02868 12.8571Z" fill="#646F86"/>
</svg>
