<svg width="27" height="24" viewBox="0 0 27 24" fill="none" xmlns="http://www.w3.org/2000/svg">
<rect y="0.230835" width="27" height="23.5385" rx="4.84615" fill="#454469"/>
<path d="M7.47119 9.646C6.40552 9.646 5.54297 10.5839 5.54297 11.7428C5.54297 12.9018 6.40455 13.8402 7.47119 13.8402C8.53492 13.8402 9.39845 12.9034 9.39845 11.7428C9.39845 10.5839 8.53492 9.646 7.47119 9.646ZM13.4313 9.646C12.368 9.646 11.5031 10.5834 11.5031 11.7423C11.5031 12.9012 12.3671 13.8397 13.4313 13.8397C14.4955 13.8397 15.3605 12.9028 15.3605 11.7423C15.3595 10.5839 14.4955 9.646 13.4313 9.646ZM19.1931 9.646C18.1279 9.646 17.2644 10.5839 17.2644 11.7434C17.2644 12.9012 18.1265 13.8397 19.1931 13.8397C20.2564 13.8397 21.1199 12.9028 21.1199 11.7434C21.1199 10.5839 20.2564 9.646 19.1931 9.646Z" fill="#A2A1B0"/>
</svg>
